<svg width="122" height="22" viewBox="0 0 122 22" fill="none" xmlns="http://www.w3.org/2000/svg">
<path d="M3.22695 6.10455H6.4539V20.8275H3.22695V6.10455Z" fill="white"/>
<path d="M0 2.8776H3.22695V6.10455H0V2.8776Z" fill="white"/>
<path d="M15.3242 21.1703C19.4381 21.1703 22.352 18.6563 22.352 13.6854C22.352 8.71452 19.4381 6.2005 15.3242 6.2005C11.2104 6.2005 8.2964 8.71452 8.2964 13.6854C8.2964 18.6563 11.2104 21.1703 15.3242 21.1703ZM15.3242 18.4278C13.2102 18.4278 11.8389 16.8565 11.8389 13.6854C11.8389 10.5143 13.2102 8.94307 15.3242 8.94307C17.4383 8.94307 18.8096 10.5143 18.8096 13.6854C18.8096 16.8565 17.4383 18.4278 15.3242 18.4278Z" fill="white"/>
<path d="M42.8857 15.7709C42.8857 19.4562 44.7712 21.1703 47.5424 21.1703C49.5993 21.1703 51.2277 20.2276 52.0562 18.4278V20.8275H55.3701V6.54333H51.9419V14.8567C51.9419 17.1708 50.7706 18.3421 48.9993 18.3421C47.2852 18.3421 46.3139 17.3707 46.3139 15.2852V6.54333H42.8857V15.7709Z" fill="white"/>
<path d="M61.2163 0.829651H57.7881V4.02931H61.2163V0.829651ZM61.2163 6.54333H57.7881V20.8275H61.2163V6.54333Z" fill="white"/>
<path d="M67.1041 0.829651H63.6759V20.8275H67.1041V0.829651Z" fill="white"/>
<path d="M79.734 20.8275H83.0479V0.829651H79.6197V9.14305C78.6198 7.2004 76.8772 6.2005 74.7631 6.2005C71.392 6.2005 68.9637 8.74309 68.9637 13.6854C68.9637 18.6277 71.392 21.1703 74.7631 21.1703C76.9629 21.1703 78.7341 20.0847 79.734 17.9992V20.8275ZM76.0772 8.94307C78.2484 8.94307 79.6197 10.5143 79.6197 13.6854C79.6197 16.8565 78.2484 18.4278 76.0772 18.4278C73.8775 18.4278 72.5062 16.8565 72.5062 13.6854C72.5062 10.5143 73.8775 8.94307 76.0772 8.94307Z" fill="white"/>
<path d="M98.3793 16.4851H94.8654C94.5797 17.6564 93.6655 18.5135 91.8657 18.5135C89.7802 18.5135 88.3518 17.2279 88.2375 14.6282H98.6079C98.6364 14.3139 98.6364 14.0282 98.6364 13.6854C98.6364 8.71452 95.751 6.2005 91.8657 6.2005C87.7805 6.2005 84.8379 8.68595 84.8379 13.6854C84.8379 18.6849 87.7805 21.1703 91.8657 21.1703C95.4082 21.1703 97.9794 19.3705 98.3793 16.4851ZM91.8657 8.85736C93.6941 8.85736 94.9797 9.97153 95.2082 12.2284H88.2947C88.5518 9.97153 89.9231 8.85736 91.8657 8.85736Z" fill="white"/>
<path d="M107.735 9.543C108.249 9.543 108.62 9.60014 108.935 9.68585V6.54333C108.62 6.45762 108.278 6.40048 107.82 6.40048C105.821 6.40048 104.278 7.48608 103.592 9.85726V6.54333H100.45V20.8275H103.878V13.514C103.878 10.8 105.421 9.543 107.735 9.543Z" fill="white"/>
<path d="M109.649 10.5143C109.649 16.2851 118.105 13.8568 118.105 16.8565C118.105 17.9135 117.077 18.5706 115.534 18.5706C113.706 18.5706 112.62 17.7421 112.506 16.4851H109.22C109.277 19.3134 111.706 21.1703 115.534 21.1703C118.962 21.1703 121.333 19.6276 121.333 16.6851C121.333 10.9429 112.906 13.314 112.906 10.3429C112.906 9.40016 113.82 8.80023 115.163 8.80023C116.762 8.80023 117.705 9.51444 117.791 10.6572H121.076C121.048 8.02888 118.934 6.2005 115.163 6.2005C111.849 6.2005 109.649 7.77176 109.649 10.5143Z" fill="white"/>
<path fill-rule="evenodd" clip-rule="evenodd" d="M24.6055 0.860762V20.8275H40.9419V9.53319H37.715V4.2894H34.488V0.860762H24.6055ZM34.488 4.2894V9.53319H27.8324V4.2894H34.488ZM37.715 12.9618H27.8324V17.6006H37.715V12.9618Z" fill="white"/>
</svg>